<mxfile host="app.diagrams.net" modified="2024-06-24T15:54:57.807Z" agent="Mozilla/5.0 (Windows NT 10.0; Win64; x64) AppleWebKit/537.36 (KHTML, like Gecko) Chrome/126.0.0.0 Safari/537.36 Edg/126.0.0.0" etag="jETo41g0BSkddSMSFfXt" version="24.6.2" type="onedrive">
  <diagram name="ページ1" id="RAZSskIybNrC9snQnbNi">
    <mxGraphModel grid="1" page="1" gridSize="10" guides="1" tooltips="1" connect="1" arrows="1" fold="1" pageScale="1" pageWidth="827" pageHeight="1169" math="0" shadow="0">
      <root>
        <mxCell id="0" />
        <mxCell id="1" parent="0" />
        <mxCell id="FMRGk8B7IV36_xssBs3s-10" style="edgeStyle=orthogonalEdgeStyle;rounded=0;orthogonalLoop=1;jettySize=auto;html=1;exitX=0.5;exitY=1;exitDx=0;exitDy=0;entryX=0.5;entryY=0;entryDx=0;entryDy=0;" edge="1" parent="1" source="FMRGk8B7IV36_xssBs3s-1" target="FMRGk8B7IV36_xssBs3s-2">
          <mxGeometry relative="1" as="geometry" />
        </mxCell>
        <mxCell id="FMRGk8B7IV36_xssBs3s-1" value="senkeilist(filename)&lt;div&gt;関数開始&lt;/div&gt;" style="rounded=0;whiteSpace=wrap;html=1;" vertex="1" parent="1">
          <mxGeometry x="80" y="40" width="120" height="60" as="geometry" />
        </mxCell>
        <mxCell id="FMRGk8B7IV36_xssBs3s-11" style="edgeStyle=orthogonalEdgeStyle;rounded=0;orthogonalLoop=1;jettySize=auto;html=1;exitX=0.5;exitY=1;exitDx=0;exitDy=0;entryX=0.5;entryY=0;entryDx=0;entryDy=0;" edge="1" parent="1" source="FMRGk8B7IV36_xssBs3s-2" target="FMRGk8B7IV36_xssBs3s-3">
          <mxGeometry relative="1" as="geometry" />
        </mxCell>
        <mxCell id="FMRGk8B7IV36_xssBs3s-2" value="players = []" style="rounded=1;whiteSpace=wrap;html=1;" vertex="1" parent="1">
          <mxGeometry x="80" y="120" width="120" height="60" as="geometry" />
        </mxCell>
        <mxCell id="FMRGk8B7IV36_xssBs3s-12" style="edgeStyle=orthogonalEdgeStyle;rounded=0;orthogonalLoop=1;jettySize=auto;html=1;exitX=0.5;exitY=1;exitDx=0;exitDy=0;entryX=0.5;entryY=0;entryDx=0;entryDy=0;" edge="1" parent="1" source="FMRGk8B7IV36_xssBs3s-3" target="FMRGk8B7IV36_xssBs3s-4">
          <mxGeometry relative="1" as="geometry" />
        </mxCell>
        <mxCell id="FMRGk8B7IV36_xssBs3s-3" value="fとしてファイルをオープン（utf-8）" style="rounded=1;whiteSpace=wrap;html=1;" vertex="1" parent="1">
          <mxGeometry x="80" y="200" width="120" height="60" as="geometry" />
        </mxCell>
        <mxCell id="FMRGk8B7IV36_xssBs3s-13" style="edgeStyle=orthogonalEdgeStyle;rounded=0;orthogonalLoop=1;jettySize=auto;html=1;exitX=0.5;exitY=1;exitDx=0;exitDy=0;entryX=0.5;entryY=0;entryDx=0;entryDy=0;" edge="1" parent="1" source="FMRGk8B7IV36_xssBs3s-4" target="FMRGk8B7IV36_xssBs3s-5">
          <mxGeometry relative="1" as="geometry" />
        </mxCell>
        <mxCell id="FMRGk8B7IV36_xssBs3s-4" value="lines = f.readlines()" style="rounded=1;whiteSpace=wrap;html=1;" vertex="1" parent="1">
          <mxGeometry x="80" y="280" width="120" height="60" as="geometry" />
        </mxCell>
        <mxCell id="FMRGk8B7IV36_xssBs3s-14" style="edgeStyle=orthogonalEdgeStyle;rounded=0;orthogonalLoop=1;jettySize=auto;html=1;exitX=0.5;exitY=1;exitDx=0;exitDy=0;entryX=0.5;entryY=0;entryDx=0;entryDy=0;" edge="1" parent="1" source="FMRGk8B7IV36_xssBs3s-5" target="FMRGk8B7IV36_xssBs3s-6">
          <mxGeometry relative="1" as="geometry" />
        </mxCell>
        <mxCell id="FMRGk8B7IV36_xssBs3s-5" value="for&lt;div&gt;line in lines&lt;/div&gt;" style="rhombus;whiteSpace=wrap;html=1;" vertex="1" parent="1">
          <mxGeometry x="80" y="360" width="120" height="80" as="geometry" />
        </mxCell>
        <mxCell id="FMRGk8B7IV36_xssBs3s-15" style="edgeStyle=orthogonalEdgeStyle;rounded=0;orthogonalLoop=1;jettySize=auto;html=1;exitX=0.5;exitY=1;exitDx=0;exitDy=0;entryX=0.5;entryY=0;entryDx=0;entryDy=0;" edge="1" parent="1" source="FMRGk8B7IV36_xssBs3s-6" target="FMRGk8B7IV36_xssBs3s-7">
          <mxGeometry relative="1" as="geometry" />
        </mxCell>
        <mxCell id="FMRGk8B7IV36_xssBs3s-6" value="data = line.split()" style="rounded=1;whiteSpace=wrap;html=1;" vertex="1" parent="1">
          <mxGeometry x="80" y="460" width="120" height="60" as="geometry" />
        </mxCell>
        <mxCell id="FMRGk8B7IV36_xssBs3s-16" style="edgeStyle=orthogonalEdgeStyle;rounded=0;orthogonalLoop=1;jettySize=auto;html=1;exitX=0.5;exitY=1;exitDx=0;exitDy=0;entryX=0.5;entryY=0;entryDx=0;entryDy=0;" edge="1" parent="1" source="FMRGk8B7IV36_xssBs3s-7" target="FMRGk8B7IV36_xssBs3s-8">
          <mxGeometry relative="1" as="geometry" />
        </mxCell>
        <mxCell id="FMRGk8B7IV36_xssBs3s-7" value="player = Player(int(data[0]), data[1], &#39; &#39;.join(data[2:]))" style="rounded=1;whiteSpace=wrap;html=1;" vertex="1" parent="1">
          <mxGeometry x="80" y="540" width="120" height="60" as="geometry" />
        </mxCell>
        <mxCell id="FMRGk8B7IV36_xssBs3s-17" style="edgeStyle=orthogonalEdgeStyle;rounded=0;orthogonalLoop=1;jettySize=auto;html=1;exitX=0.5;exitY=1;exitDx=0;exitDy=0;" edge="1" parent="1" source="FMRGk8B7IV36_xssBs3s-8" target="FMRGk8B7IV36_xssBs3s-9">
          <mxGeometry relative="1" as="geometry" />
        </mxCell>
        <mxCell id="FMRGk8B7IV36_xssBs3s-8" value="players.insert(0, player)" style="rounded=1;whiteSpace=wrap;html=1;" vertex="1" parent="1">
          <mxGeometry x="80" y="620" width="120" height="60" as="geometry" />
        </mxCell>
        <mxCell id="FMRGk8B7IV36_xssBs3s-19" style="edgeStyle=orthogonalEdgeStyle;rounded=0;orthogonalLoop=1;jettySize=auto;html=1;exitX=0.5;exitY=1;exitDx=0;exitDy=0;entryX=0.5;entryY=0;entryDx=0;entryDy=0;" edge="1" parent="1" source="FMRGk8B7IV36_xssBs3s-9" target="FMRGk8B7IV36_xssBs3s-18">
          <mxGeometry relative="1" as="geometry" />
        </mxCell>
        <mxCell id="FMRGk8B7IV36_xssBs3s-20" style="edgeStyle=orthogonalEdgeStyle;rounded=0;orthogonalLoop=1;jettySize=auto;html=1;exitX=0;exitY=0.5;exitDx=0;exitDy=0;entryX=0;entryY=0.5;entryDx=0;entryDy=0;" edge="1" parent="1" source="FMRGk8B7IV36_xssBs3s-9" target="FMRGk8B7IV36_xssBs3s-5">
          <mxGeometry relative="1" as="geometry" />
        </mxCell>
        <mxCell id="FMRGk8B7IV36_xssBs3s-9" value="playersに値を返す" style="rounded=1;whiteSpace=wrap;html=1;" vertex="1" parent="1">
          <mxGeometry x="80" y="700" width="120" height="60" as="geometry" />
        </mxCell>
        <mxCell id="FMRGk8B7IV36_xssBs3s-18" value="終了" style="rounded=0;whiteSpace=wrap;html=1;" vertex="1" parent="1">
          <mxGeometry x="80" y="780" width="120" height="60" as="geometry" />
        </mxCell>
      </root>
    </mxGraphModel>
  </diagram>
</mxfile>
